<svg xmlns="http://www.w3.org/2000/svg" xmlns:xlink="http://www.w3.org/1999/xlink" viewBox="0 0 403.23 403.28"><defs><style>.cls-1{fill:none;}.cls-2{isolation:isolate;}.cls-3{fill:#3f51b5;}.cls-4{clip-path:url(#clip-path);}.cls-5{opacity:0.2;mix-blend-mode:multiply;}.cls-6{fill:url(#Unbenannter_Verlauf_2);}.cls-7{opacity:0.8;}.cls-8{fill:#fff;}.cls-9{opacity:0.8;}</style><clipPath id="clip-path" transform="translate(0.08 0)"><rect class="cls-1" width="403.15" height="403.15"/></clipPath><radialGradient id="Unbenannter_Verlauf_2" cx="0" cy="403.15" r="1" gradientTransform="matrix(201.57, 0, 0, -201.57, 201.57, 81466.67)" gradientUnits="userSpaceOnUse"><stop offset="0" stop-color="#c2c2c1"/><stop offset="1" stop-color="#1d1d1b"/></radialGradient></defs><title>bsw-cti</title><g class="cls-2"><g id="Ebene_1" data-name="Ebene 1"><rect class="cls-3" x="0.08" width="403.15" height="403.15"/><g class="cls-4"><g class="cls-5"><g class="cls-4"><g class="cls-4"><rect class="cls-6" y="0.13" width="403.15" height="403.15"/></g></g></g></g><g class="cls-4"><g class="cls-7"><g class="cls-4"><path class="cls-8" d="M0,403.15H403.15V0H0Zm377.58-25.74h-352v-352h352Z" transform="translate(0.08 0)"/></g></g></g></g><g id="Ebene_4" data-name="Ebene 4"><g class="cls-9"><path id="curve2" class="cls-8" d="M280.37,288.64c0,20.09-47.62,28-79.37,28s-79.37-7.93-79.37-28c0-43.65,14.43-50.33,41.25-70.32a71.5,71.5,0,0,0,76.24,0C266,238.36,280.37,245,280.37,288.64Z" transform="translate(0.08 0)"/><path id="curve1" class="cls-8" d="M253.53,193.59a63.49,63.49,0,0,1-105.06,0,15.89,15.89,0,0,0,4.91-11.51V134.26a16.6,16.6,0,0,0-.5-4,55.45,55.45,0,0,1,96.24,0,16.6,16.6,0,0,0-.5,4v47.82A15.89,15.89,0,0,0,253.53,193.59Z" transform="translate(0.08 0)"/><path id="curve0" class="cls-8" d="M201,86.49a71.41,71.41,0,0,1,64,39.68h7.44a15.89,15.89,0,0,1,15.88,15.88V173.8a15.92,15.92,0,0,1-15.88,15.87H264.5a8,8,0,0,1-7.94-7.94V134.11a7.8,7.8,0,0,1,1.34-4.39,63.51,63.51,0,0,0-113.8,0,7.8,7.8,0,0,1,1.34,4.39v47.62a8,8,0,0,1-7.94,7.94h-7.93a15.9,15.9,0,0,1-15.88-15.87V142.05a15.89,15.89,0,0,1,15.88-15.88H137A71.41,71.41,0,0,1,201,86.49Z" transform="translate(0.08 0)"/></g></g></g></svg>