<?xml version="1.0" encoding="utf-8"?>
<!-- Generator: Adobe Illustrator 12.0.0, SVG Export Plug-In . SVG Version: 6.00 Build 51448)  -->
<!DOCTYPE svg PUBLIC "-//W3C//DTD SVG 1.1//EN" "http://www.w3.org/Graphics/SVG/1.1/DTD/svg11.dtd" [
	<!ENTITY ns_svg "http://www.w3.org/2000/svg">
	<!ENTITY ns_xlink "http://www.w3.org/1999/xlink">
]>
<svg  version="1.1" xmlns="&ns_svg;" xmlns:xlink="&ns_xlink;" width="400" height="400" viewBox="0 0 400 400"
	 overflow="visible" enable-background="new 0 0 400 400" xml:space="preserve">
<g id="Ebene_1">
</g>
<g id="Ebene_3_1_">
	<rect fill="#2980B9" width="400" height="400"/>
</g>
<g id="Ebene_5">
	<path fill="#FFFFFF" d="M240.612,149.292c50.987,15.747,85.269,55.107,85.272,98.62c0,58.419-60.452,106.073-134.569,106.073
		c-49.414,0-94.841-21.66-117.97-55.637l23.665-0.006c21.747,17.147,50.354,27.369,81.164,27.369
		c63.881,0,115.986-41.063,115.986-91.422c0-37.502-29.488-71.43-73.439-84.998l1.371,0.056h18.11L240.612,149.292 M253.868,109.792
		l19.778-0.019c61.422-106.56-90.412-57.716-149.554-15.875l17.311-0.013C194.89,65.428,280.869,44.991,253.868,109.792
		 M175.964,124.978c-46.463,43.3-41.386,103.827-36.681,124.881l34.813,0.019c-2.399-10.077-33.163-75.054,12.402-124.838
		L175.964,124.978z"/>
</g>
</svg>
