<svg xmlns="http://www.w3.org/2000/svg" xmlns:xlink="http://www.w3.org/1999/xlink" viewBox="0 0 403.15 403.15"><defs><style>.cls-1{isolation:isolate;}.cls-2{fill:#2ecc71;}.cls-3{opacity:0.2;mix-blend-mode:multiply;fill:url(#Unbenannter_Verlauf_41);}.cls-4{opacity:0.8;}.cls-5{fill:#fff;}</style><radialGradient id="Unbenannter_Verlauf_41" cx="201.57" cy="201.57" r="201.57" gradientUnits="userSpaceOnUse"><stop offset="0" stop-color="#c2c2c1"/><stop offset="1"/></radialGradient></defs><title>ocean-blue</title><g class="cls-1"><g id="Bg"><rect class="cls-2" width="403.15" height="403.15"/></g><g id="Effect"><rect class="cls-3" width="403.15" height="403.15"/></g><g id="Icon_and_Border" data-name="Icon and Border"><g class="cls-4"><path class="cls-5" d="M0,0V403.15H403.15V0ZM377.57,377.41h-352v-352h352Z" transform="translate(0)"/></g><g class="cls-4"><path id="curve0" class="cls-5" d="M68.28,163l39.63-19.83a9.92,9.92,0,0,1,3.53-1l218.13-19.86a9.92,9.92,0,0,1,10.75,9,10.38,10.38,0,0,1-.56,4.28L300.1,244.61a9.83,9.83,0,0,1-5.36,5.7l-39.16,19.58a9.87,9.87,0,0,1-8.89,0l-40.09-20-38.27,28.72a10.52,10.52,0,0,1-2.54,1.55,9.91,9.91,0,0,1-13-5.24l-28.32-66.09-56.21-28.1a9.85,9.85,0,0,1,0-17.66Zm81.3,36.25,140-43.53L187.23,218.05l63.92,32,31.7-15.86,33-90.75L115.06,161.66,94.77,171.83Z" transform="translate(0)"/></g></g></g></svg>