<?xml version="1.0" encoding="utf-8"?>
<!-- Generator: Adobe Illustrator 19.1.0, SVG Export Plug-In . SVG Version: 6.00 Build 0)  -->
<svg version="1.1" xmlns="http://www.w3.org/2000/svg" xmlns:xlink="http://www.w3.org/1999/xlink" x="0px" y="0px"
	 viewBox="0 0 403.1 403.1" style="enable-background:new 0 0 403.1 403.1;" xml:space="preserve">
<style type="text/css">
	.st0{fill:#3399FF;}
	.st1{opacity:0.2;fill:url(#SVGID_1_);}
	.st2{opacity:0.8;}
	.st3{fill:#FFFFFF;}
</style>
<g id="Bg">
	<rect x="0" class="st0" width="403.1" height="403.1"/>
</g>
<g id="Effect">
	<radialGradient id="SVGID_1_" cx="201.5748" cy="201.5748" r="201.5748" gradientUnits="userSpaceOnUse">
		<stop  offset="0" style="stop-color:#C2C2C1"/>
		<stop  offset="1" style="stop-color:#000000"/>
	</radialGradient>
	<rect x="0" class="st1" width="403.1" height="403.1"/>
</g>
<g id="Icon_and_Border">
	<g class="st2">
		<path class="st3" d="M0,0v403.1h403.1V0H0z M377.6,377.4h-352v-352h352V377.4z"/>
	</g>
	<g class="st2">
		<title>user icon</title>
		<desc>user icon from the IconExperience.com O-Collection. Copyright by INCORS GmbH (www.incors.com).</desc>
		<path id="curve1_1_" class="st3" d="M283.6,288c0,20.7-49.2,28.9-82,28.9s-82-8.2-82-28.9c0-45.1,14.9-52,42.6-72.6
			c11.4,7.2,24.9,11.4,39.4,11.4s28-4.2,39.4-11.4C268.7,236.1,283.6,242.9,283.6,288z"/>
		<path id="curve0_1_" class="st3" d="M201.7,87.4c36.2,0,65.6,29.4,65.6,65.6s-29.4,65.6-65.6,65.6s-65.6-29.4-65.6-65.6
			S165.4,87.4,201.7,87.4z"/>
	</g>
</g>
</svg>
