<?xml version="1.0" encoding="UTF-8" standalone="no"?><!DOCTYPE svg PUBLIC "-//W3C//DTD SVG 1.1//EN" "http://www.w3.org/Graphics/SVG/1.1/DTD/svg11.dtd"><svg width="100%" height="100%" viewBox="0 0 404 404" version="1.1" xmlns="http://www.w3.org/2000/svg" xmlns:xlink="http://www.w3.org/1999/xlink" xml:space="preserve" xmlns:serif="http://www.serif.com/" style="fill-rule:evenodd;clip-rule:evenodd;stroke-linejoin:round;stroke-miterlimit:2;"><rect id="Themify" x="0" y="0" width="403.1" height="403.1" style="fill:none;"/><clipPath id="_clip1"><rect x="0" y="0" width="403.1" height="403.1"/></clipPath><g clip-path="url(#_clip1)"><g><path id="Bg" d="M403.1,88.643c0,-48.951 -39.742,-88.693 -88.693,-88.693l-225.764,0c-48.951,0 -88.693,39.742 -88.693,88.693l0,225.764c0,48.951 39.742,88.693 88.693,88.693l225.764,0c48.951,0 88.693,-39.742 88.693,-88.693l0,-225.764Z" style="fill:#151515;"/><clipPath id="_clip2"><path id="Bg1" serif:id="Bg" d="M403.1,88.643c0,-48.951 -39.742,-88.693 -88.693,-88.693l-225.764,0c-48.951,0 -88.693,39.742 -88.693,88.693l0,225.764c0,48.951 39.742,88.693 88.693,88.693l225.764,0c48.951,0 88.693,-39.742 88.693,-88.693l0,-225.764Z"/></clipPath><g clip-path="url(#_clip2)"><rect id="Effect" x="-0.05" y="-0.05" width="403.15" height="403.15" style="fill:url(#_Radial3);"/></g><path id="curve3" d="M203.362,267.259c19.936,21.995 0.026,48.186 -26.572,48.186l-45.975,0c13.782,-5.06 17.546,-14.367 20.775,-24.36c2.619,-8.112 4.882,-16.681 11.875,-23.826c9.256,-9.485 27.463,-13.706 39.897,0Zm70.106,10.4c23.191,-23.115 34.431,-52.764 35.524,-81.549c-6.154,8.366 -12.485,16.528 -19.199,24.488c-1.678,2.008 -3.407,4.017 -5.136,6.001c-0.28,3.661 -3.026,6.636 -6.561,7.323c-0.584,0.636 -1.169,1.297 -1.754,1.933c0.127,0.737 0.203,1.5 0.203,2.288c0,2.518 -0.763,4.857 -2.059,6.79c1.271,1.449 2.059,3.331 2.059,5.416c0,4.501 -3.636,8.137 -8.137,8.137c-3.814,0 -7.043,-2.645 -7.908,-6.205c-0.712,0.712 -1.424,1.424 -2.136,2.136c-6.688,6.612 -13.324,13.096 -21.08,18.461c-0.916,0.636 -1.907,1.068 -2.924,1.297c0.94,1.322 1.5,2.95 1.5,4.704c0,4.476 -3.636,8.138 -8.137,8.138c-0.356,0 -0.712,-0.026 -1.043,-0.077c-0.839,2.39 -3.102,4.094 -5.747,4.094c-0.584,0 -1.118,-0.076 -1.652,-0.229c-0.178,1.323 -0.458,2.645 -0.814,3.967c-1.933,7.069 -5.95,12.994 -11.189,17.597c23.344,-4.781 46.967,-15.537 66.19,-34.71Zm-86.303,-27.183c0.101,-0.534 0.254,-1.068 0.457,-1.602c1.119,-2.95 2.416,-5.823 3.916,-8.595c0.839,-1.526 2.085,-2.695 3.535,-3.433c0,-1.627 0.508,-3.229 1.525,-4.653c5.417,-7.629 11.952,-14.164 18.589,-20.724c10.908,-10.782 22.148,-21.258 33.87,-31.15c3.764,-3.179 7.578,-6.306 11.418,-9.358c-0.128,-0.585 -0.204,-1.195 -0.204,-1.831c0,-4.5 3.636,-8.137 8.137,-8.137c1.373,0 2.696,0.331 3.814,0.941c2.009,-1.5 4.018,-2.975 6.052,-4.45c6.764,-4.933 13.605,-9.739 20.47,-14.57c-6.815,-14.749 -16.884,-27.412 -29.776,-36.414c-48.289,-33.667 -126.608,-24.436 -161.293,44.653c-30.971,61.663 23.878,36.972 28.251,63.977c5.264,32.269 -69.521,36.236 -23.19,81.498c4.043,3.942 9.891,7.527 17.062,10.452c8.595,-3.738 11.189,-9.612 14.062,-18.487c3.331,-10.324 5.925,-18.995 13.782,-27.03c6.256,-6.408 15.079,-10.477 24.005,-11.113c1.881,-0.152 3.712,-0.127 5.518,0.026Zm11.544,-6.332c-1.297,2.416 -2.467,4.933 -3.484,7.603c5.264,1.984 10.045,5.239 14.062,9.612c3.509,3.865 6.332,8.163 8.163,12.791c2.771,-1.017 5.391,-2.187 7.857,-3.484c-2.11,-5.086 -5.314,-10.12 -9.714,-14.952c-4.907,-5.314 -10.679,-9.154 -16.884,-11.57Zm132.609,-103.951c-0.534,-0.534 -1.068,-1.068 -1.602,-1.577c-2.619,-2.593 -6.662,-2.924 -9.663,-0.762c-36.21,25.835 -58.79,39.515 -99.145,79.412c-6.255,6.18 -12.511,12.384 -17.673,19.631c6.84,2.874 13.223,7.247 18.665,13.172c4.755,5.187 8.289,10.629 10.756,16.122c7.4,-5.111 13.68,-11.341 19.987,-17.546c40.354,-39.923 53.298,-63.088 79.438,-98.891c2.187,-2.975 1.856,-6.993 -0.763,-9.561Zm-143.136,70.309c-9.46,9.612 -24.92,9.74 -34.532,0.306c-9.612,-9.46 -9.739,-24.92 -0.305,-34.532c9.459,-9.612 24.92,-9.739 34.532,-0.305c9.611,9.459 9.739,24.92 0.305,34.531Zm47.678,-78.141c0,-1.449 0.254,-2.823 0.712,-4.094c-0.229,0.025 -0.483,0.025 -0.712,0.025c-4.501,0 -8.137,-3.636 -8.137,-8.137c0,-4.5 3.636,-8.137 8.137,-8.137c4.501,0 8.137,3.637 8.137,8.137c0,0.229 0,0.484 -0.025,0.712c1.271,-0.457 2.644,-0.712 4.094,-0.712c2.517,0 4.856,0.763 6.789,2.06c1.449,-1.271 3.331,-2.06 5.416,-2.06c4.501,0 8.137,3.637 8.137,8.137c0,4.501 -3.636,8.138 -8.137,8.138c-0.229,0 -0.458,0 -0.686,-0.026c-0.153,0.407 -0.306,0.814 -0.509,1.221c0.737,0.737 1.195,1.754 1.195,2.873c0,0.585 -0.127,1.17 -0.356,1.678c0.229,0.763 0.356,1.552 0.356,2.391c0,4.5 -3.636,8.137 -8.137,8.137c-4.501,0 -8.137,-3.637 -8.137,-8.137c0,-0.229 0,-0.458 0.025,-0.687c-0.406,-0.152 -0.813,-0.305 -1.22,-0.508c-0.738,0.737 -1.755,1.195 -2.874,1.195c-2.237,0 -4.068,-1.831 -4.068,-4.069c0,-1.119 0.458,-2.136 1.195,-2.873c-0.763,-1.602 -1.195,-3.382 -1.195,-5.264Zm-44.703,-16.986c0,-4.501 3.636,-8.137 8.137,-8.137c4.475,0 8.137,3.636 8.137,8.137c0,0.356 -0.025,0.686 -0.076,1.042c2.39,0.814 4.094,3.077 4.094,5.747c0,3.357 -2.721,6.078 -6.078,6.078c-2.899,0 -5.34,-2.035 -5.95,-4.73l-0.127,0c0,4.475 -3.662,8.137 -8.137,8.137c-4.501,0 -8.137,-3.662 -8.137,-8.137c-4.501,0 -8.137,-3.662 -8.137,-8.137c0,-3.23 1.856,-6.001 4.551,-7.324l0,-0.101c0,-2.238 1.806,-4.069 4.069,-4.069c2.238,0 4.068,1.831 4.068,4.069c0,0.229 -0.025,0.432 -0.05,0.635c2.186,1.475 3.636,3.942 3.636,6.79Z" style="fill:#fff;fill-opacity:0.8;fill-rule:nonzero;"/></g></g><defs><radialGradient id="_Radial3" cx="0" cy="0" r="1" gradientUnits="userSpaceOnUse" gradientTransform="matrix(201.57,0,0,201.57,201.52,201.52)"><stop offset="0" style="stop-color:#000;stop-opacity:0.2"/><stop offset="1" style="stop-color:#c2c2c1;stop-opacity:0.2"/></radialGradient></defs></svg>