<?xml version="1.0" encoding="utf-8"?>
<!-- Generator: Adobe Illustrator 12.0.0, SVG Export Plug-In . SVG Version: 6.00 Build 51448)  -->
<!DOCTYPE svg PUBLIC "-//W3C//DTD SVG 1.1//EN" "http://www.w3.org/Graphics/SVG/1.1/DTD/svg11.dtd" [
	<!ENTITY ns_svg "http://www.w3.org/2000/svg">
	<!ENTITY ns_xlink "http://www.w3.org/1999/xlink">
]>
<svg  version="1.1" id="Ebene_1" xmlns="&ns_svg;" xmlns:xlink="&ns_xlink;" width="557.214" height="98.953"
	 viewBox="0 0 557.214 98.953" overflow="visible" enable-background="new 0 0 557.214 98.953" xml:space="preserve">
<path fill="#FFFFFF" d="M276.218,49.407c7.262,7.528,10.862,18.088,10.584,25.94c-3.838,0-7.525,0-11.365,0
	c2.637-6.225,1.322-19.281-5.652-25.94H276.218L276.218,49.407z"/>
<path fill="#FFFFFF" d="M362.761,75.328c12.537-31.384-1.67-22.545-34.252,0L327.705,75c0.578-2.018,1.455-5.646,4.641-8.607
	c24.822-23.084,62.912-42.391,37.855,8.938L362.761,75.328L362.761,75.328z"/>
<path fill="#FFFFFF" d="M321.056,75.328c12.537-31.384-1.67-22.545-34.252,0l-2.629-1.959c0.58-2.018,3.279-4.016,6.465-6.979
	c24.82-23.085,62.912-42.392,37.855,8.938H321.056L321.056,75.328z"/>
<path fill="#FFFFFF" d="M414.208,42.929l6.111,0.021c8.498,2.852,13.109,8.456,13.109,15.608c0,1.355-0.221,2.682-0.639,3.945
	c-0.99,6.604-0.543,9.438,0.25,12.785c0.004,0.021-1.852-0.049-2.813-0.045c-1.535,0.006-4.199,0.061-4.732,0.068
	c-0.439-1.59-1.125-2.32-1.828-2.98c-3.613,1.854-7.984,2.941-12.684,2.941c-12.367,0-22.453-7.553-22.453-16.723
	c0-3.059,1.35-6.375,3.455-8.975l2.398,0.031c-0.893,1.646-1.717,3.877-1.717,5.726c0,7.24,7.354,13.144,16.355,13.144
	c9.01,0,16.354-5.897,16.354-13.144C425.386,49.696,420.851,44.675,414.208,42.929L414.208,42.929z"/>
<path fill="#FFFFFF" d="M81.004,64.917c0,18.738-19.39,34.022-43.164,34.022c-15.849,0-30.421-6.945-37.84-17.846l7.591-0.002
	c6.976,5.5,16.152,8.779,26.035,8.779c20.49,0,37.202-13.172,37.202-29.324c0-12.029-9.459-22.913-23.556-27.264l0.44,0.018h5.809
	l0.131-0.018C70.007,38.335,81.003,50.96,81.004,64.917z M57.904,20.614l6.345-0.006c19.701-34.18-29.001-18.513-47.971-5.092
	l5.552-0.004C38.987,6.383,66.565-0.171,57.904,20.614z M32.916,25.485C18.013,39.374,19.641,58.789,21.15,65.542l11.167,0.006
	c-0.77-3.231-10.637-24.074,3.978-40.043L32.916,25.485z M96.58,49.409l-6.839,0.002c7.495,6.659,8.867,19.813,6.035,26.04
	c4.124,0,8.087,0,12.212,0c0.159-4.197-0.884-9.197-3.08-14.094c3.276-3.047,20.667-16.06,19.994-5.674h10.588
	c8.333-26.917-17.437-12.927-33.228,0.74C100.685,53.927,98.788,51.542,96.58,49.409L96.58,49.409z M184.342,32.86
	c0,2.314,2.047,4.191,4.571,4.191s4.571-1.877,4.571-4.191c0-2.311-2.047-4.188-4.571-4.188
	C186.388,28.673,184.342,30.55,184.342,32.86z M173.677,28.507c2.524,0,4.571,1.877,4.571,4.188c0,2.314-2.047,4.191-4.571,4.191
	c-2.524,0-4.571-1.877-4.571-4.191C169.106,30.384,171.153,28.507,173.677,28.507z M147.871,49.478
	c0.608-0.004,8.697-0.006,11.687-0.004c8.641,24.559,31.341,8.854,44.358-6.646c0.166-0.002,4.527,0.002,5.154,0
	c-0.137,1.627-20.444,32.16-37.266,32.611C162.609,75.688,156.965,67.145,147.871,49.478L147.871,49.478z M256.469,68.835
	c3.898,5.226,4.992,9.606,4.681,13.531c-0.948,11.897-13.553,16.586-23.422,16.586c-9.868,0.002-16.769-5.603-21.681-14.269
	l3.327-0.002c4.768,6.284,11.062,8.45,17.854,8.354c6.793-0.104,12.667-2.518,13.879-9.646c0.627-3.701-1.213-6.925-4.617-9.129
	c-2.402,0.659-4.996,1.021-7.698,1.021c-12.366,0-22.452-7.559-22.452-16.729c0-3.059,1.349-6.375,3.454-8.975l2.406,0.031
	c-0.895,1.646-1.718,3.876-1.718,5.726c0,7.24,7.348,13.143,16.356,13.143c9.01,0,16.355-5.896,16.355-13.143
	c0-5.646-4.535-10.667-11.18-12.415l6.11,0.021c8.498,2.854,13.12,8.455,13.12,15.608C261.244,62.419,259.459,65.994,256.469,68.835
	z"/>
<path fill="#FFFFFF" d="M507.197,75.375h-4.773c1.396-1.588,2.904-3.205,4.498-4.818c6.543-7.963,9.367-14.303,4.379-21.041
	c5.105,0,4.148,0.01,4.523,0.002c1.836,1.292,4.188,5.042,5.16,8.544c23.564-18.438,49.945-27.573,28.033,17.313h-7.436
	C552.748,46.599,544.003,49.839,507.197,75.375z M482.707,75.375h7.438c21.912-44.888-4.469-35.75-28.029-17.313
	c-0.979-3.502-3.324-7.252-5.158-8.545c-0.375,0.008,0.574-0.002-4.525-0.002c4.99,6.737,2.166,13.077-4.379,21.042
	c-1.592,1.611-3.1,3.229-4.496,4.816h4.773C485.13,49.839,493.873,46.599,482.707,75.375z"/>
</svg>
