<svg fill-rule="evenodd" stroke-linejoin="round" stroke-miterlimit="2" clip-rule="evenodd" viewBox="0 0 517 615" xmlns="http://www.w3.org/2000/svg"><path fill="url(#_Linear1)" d="M.438 0H.124a.064.064 0 01-.045-.019.064.064 0 01-.019-.045v-.643c0-.035.029-.064.064-.064h.412c.035 0 .064.029.064.064v.063a.072.072 0 01-.008.032L.539-.52A.27.27 0 01.438 0zm.023-.383l-.13.229h.107a.116.116 0 00.023-.229zM.285-.385H.214v.125l.071-.125zM.224-.617a.01.01 0 00-.007.003.01.01 0 00-.003.007v.067h.159l.044-.077H.224z" transform="translate(-47.82 614.4) scale(796.887)"/><defs><linearGradient id="_Linear1" x1="0" x2="1" y1="0" y2="0" gradientTransform="rotate(90 .552 -.219) scale(.771)" gradientUnits="userSpaceOnUse"><stop offset="0" stop-color="#6da2f8"/><stop offset="1" stop-color="#0b64f4"/></linearGradient></defs></svg>