<?xml version="1.0" encoding="UTF-8" standalone="no"?><!DOCTYPE svg PUBLIC "-//W3C//DTD SVG 1.1//EN" "http://www.w3.org/Graphics/SVG/1.1/DTD/svg11.dtd"><svg width="100%" height="100%" viewBox="0 0 404 404" version="1.1" xmlns="http://www.w3.org/2000/svg" xmlns:xlink="http://www.w3.org/1999/xlink" xml:space="preserve" xmlns:serif="http://www.serif.com/" style="fill-rule:evenodd;clip-rule:evenodd;stroke-linejoin:round;stroke-miterlimit:2;"><rect id="Blue" x="0" y="0" width="403.28" height="403.28" style="fill:none;"/><path d="M403.23,88.693c0,-48.951 -39.742,-88.693 -88.693,-88.693l-225.764,0c-48.951,0 -88.693,39.742 -88.693,88.693l0,225.764c0,48.951 39.742,88.693 88.693,88.693l225.764,0c48.951,0 88.693,-39.742 88.693,-88.693l0,-225.764Z" style="fill:#3200e5;"/><clipPath id="_clip1"><path d="M403.23,88.693c0,-48.951 -39.742,-88.693 -88.693,-88.693l-225.764,0c-48.951,0 -88.693,39.742 -88.693,88.693l0,225.764c0,48.951 39.742,88.693 88.693,88.693l225.764,0c48.951,0 88.693,-39.742 88.693,-88.693l0,-225.764Z"/></clipPath><g clip-path="url(#_clip1)"><rect x="0" y="0.13" width="403.15" height="403.15" style="fill:url(#_Radial2);"/></g><path d="M224.749,316.64l-112.763,0l0,-230l161.09,0l0,42.957l-18.197,31.92c29.831,11.932 50.415,40.57 50.415,74.578c0,44.449 -36.096,80.545 -80.545,80.545Zm-66.822,-184.06l0,22.971l47.432,0l13.125,-22.971l-60.557,0Zm21.18,69.209l-21.18,0l0,37.289l21.18,-37.289Zm52.503,0.597l-38.781,68.314l31.92,0c19.092,0 34.604,-15.513 34.604,-34.605c0,-16.705 -11.932,-30.428 -27.743,-33.709Z" style="fill:#fff;fill-opacity:0.8;fill-rule:nonzero;"/><defs><radialGradient id="_Radial2" cx="0" cy="0" r="1" gradientUnits="userSpaceOnUse" gradientTransform="matrix(201.57,0,0,-201.57,201.57,203.725)"><stop offset="0" style="stop-color:#1d1d1b;stop-opacity:0.2"/><stop offset="1" style="stop-color:#c2c2c1;stop-opacity:0.2"/></radialGradient></defs></svg>